Simulation
nRows=44
nColumns=15
endheader
time  TH_x TH_y TH_z SC_y  SC_z  SC_x  AC_y  AC_z  AC_x  GH_y  GH_z  GH_yy  EL_x  PS_y
0.0  0.000000  0.000000  0.000000  -30.74333846345191  -0.6387738630748533  71.60451715475074  30.103173219743002  -46.53296300482195  -61.31518924771538  37.613357258879  -0.5471271507610093  -9.096838430878133  23.03789389054141  0.000000
0.031  0.000000  0.000000  0.000000  -30.736605414742304  -0.4545750724869322  71.66359193869819  30.253786314898186  -46.362858049441165  -61.56587542894371  37.55695385306438  -0.6600726878159666  -9.152704266085976  22.975628407549284  0.000000
0.062  0.000000  0.000000  0.000000  -30.676452080822713  -0.3792175118536643  71.7366619211106  30.265166148832517  -46.14684970373764  -61.75620535825832  37.53983629763404  -0.8136774749393836  -9.163332635958039  22.799625119727285  0.000000
0.093  0.000000  0.000000  0.000000  -30.590361439688827  -0.39014135721713405  71.81296854420457  30.173427774584265  -45.9064933184079  -61.89938641260076  37.54655081600087  -0.9472066762768256  -9.140309169855408  22.613532321719482  0.000000
0.124  0.000000  0.000000  0.000000  -30.522807258589648  -0.46871839487109496  71.90191919305354  29.986351747862447  -45.64199748430112  -61.992746522929494  37.5564475769533  -1.0365935947409146  -9.099510517597263  22.441270831423154  0.000000
0.155  0.000000  0.000000  0.000000  -30.462837068649634  -0.5928228429074894  72.0006208102576  29.73109765535996  -45.42131311657895  -62.0465813592545  37.51709748485873  -1.0288391730309019  -9.08663231008001  22.285170085468117  0.000000
0.186  0.000000  0.000000  0.000000  -30.39731351202214  -0.7438692997943094  72.09628807944407  29.49472388304406  -45.369227042372046  -62.10767448445902  37.37625074928291  -0.8140506905404282  -9.147142834073824  22.19180757656391  0.000000
0.217  0.000000  0.000000  0.000000  -30.376948805642375  -0.8570771368481983  72.18940568834  29.320460123524274  -45.49457778333565  -62.199515801167436  37.153530423929936  -0.34853469348466337  -9.259543193428179  22.132970643822024  0.000000
0.248  0.000000  0.000000  0.000000  -30.472049599899982  -0.9141900631445872  72.23061093558564  29.247066302614  -45.65702178512016  -62.28651204507339  36.88875607069811  0.36148722991705273  -9.384865344009638  22.043009811734603  0.000000
0.279  0.000000  0.000000  0.000000  -30.647661853901546  -0.955695702997226  72.18826616173924  29.268371115373352  -45.732852174807874  -62.31698612783412  36.554721293419945  1.248995139388679  -9.55088605175996  21.853351889222594  0.000000
0.31  0.000000  0.000000  0.000000  -30.826474903212578  -0.9968227509832023  72.09295682257893  29.361367838629437  -45.728810044036415  -62.276689540268784  36.13681085474108  2.2410438523027363  -9.774568678076427  21.610345763257783  0.000000
0.34099999999999997  0.000000  0.000000  0.000000  -30.962487757882304  -1.0231567925320713  71.96074123100719  29.521913602394726  -45.699704819597194  -62.15758171655266  35.65757692278471  3.3096455154593825  -10.038816247507361  21.405124220891928  0.000000
0.372  0.000000  0.000000  0.000000  -31.06287386191208  -1.0419469587343617  71.8046443921926  29.739220186915833  -45.65975928150441  -61.94612045195154  35.128574054547904  4.433304932111498  -10.335076465517105  21.27271289092702  0.000000
0.403  0.000000  0.000000  0.000000  -31.15829156086143  -1.0737537193586735  71.64525580555842  30.000805316842794  -45.61727422004043  -61.63177066712614  34.54374803218934  5.602346010394214  -10.66817069262602  21.20304807102875  0.000000
0.434  0.000000  0.000000  0.000000  -31.266249484797147  -1.125041824889173  71.50153361175305  30.297686701222275  -45.598162158066216  -61.216519003783525  33.888583001458784  6.821336030019171  -11.047410707335281  21.18154151123721  0.000000
0.46499999999999997  0.000000  0.000000  0.000000  -31.385655904508923  -1.1849863740304354  71.3814230154668  30.631811740842974  -45.62687543627302  -60.71769006927149  33.162103433251104  8.102963234164152  -11.4649126993422  21.205130191114268  0.000000
0.496  0.000000  0.000000  0.000000  -31.492764711546506  -1.232449128419396  71.28331629265749  31.011409651403028  -45.70500814541494  -60.16549121167031  32.38203290507647  9.454466036122781  -11.889924337388331  21.27639171692522  0.000000
0.527  0.000000  0.000000  0.000000  -31.56956369653821  -1.2514032769836978  71.20256617063264  31.43408727273915  -45.78884414887771  -59.584414625793045  31.580492364226004  10.865385302083853  -12.275778544749599  21.38058418230584  0.000000
0.558  0.000000  0.000000  0.000000  -31.6064981887518  -1.233345664811863  71.12564762341907  31.89228568921513  -45.83159271857123  -58.98578002438763  30.783134106630563  12.328226812386232  -12.59266634344646  21.489684720676518  0.000000
0.589  0.000000  0.000000  0.000000  -31.606218563804536  -1.1748310581328558  71.04329088395963  32.3814885451579  -45.80732667890773  -58.37333874244233  30.012868946092542  13.840514879829092  -12.830610078929823  21.583062857688578  0.000000
0.62  0.000000  0.000000  0.000000  -31.58422184980134  -1.077464898600478  70.95339692695406  32.898180794674204  -45.711590567078865  -57.74616768348932  29.284377900279196  15.403258740412339  -13.004027593849342  21.65108322461094  0.000000
0.651  0.000000  0.000000  0.000000  -31.555926754645238  -0.9452804292785301  70.8569199386115  33.43982009460753  -45.554338735674826  -57.10069478331411  28.605541421360662  17.020219934268944  -13.140676249611142  21.68806561952125  0.000000
0.6819999999999999  0.000000  0.000000  0.000000  -31.52874806805182  -0.785911526020828  70.75811097279559  34.00280834983986  -45.35176416224555  -56.43400299024387  27.97348140892513  18.695753544293076  -13.269730773443897  21.69079651095612  0.000000
0.713  0.000000  0.000000  0.000000  -31.498603239059914  -0.6090027230144681  70.66134000784974  34.583973946424976  -45.119836307613525  -55.746887167833954  27.37582156185622  20.434929430967937  -13.40907528495824  21.6606291218569  0.000000
0.744  0.000000  0.000000  0.000000  -31.454022033950775  -0.42514066673418904  70.57046433332262  35.182561876591734  -44.867857613336945  -55.045989082165086  26.797064821126135  22.238023055177898  -13.559569608467456  21.60629500929413  0.000000
0.775  0.000000  0.000000  0.000000  -31.387348568730964  -0.2424870570554275  70.49097246569863  35.79881070838066  -44.59942635795356  -54.339388783678174  26.228027775482666  24.09523037699859  -13.712652283959143  21.537625194518117  0.000000
0.806  0.000000  0.000000  0.000000  -31.300321071764767  -0.06407764332570229  70.43107496910837  36.433727942551585  -44.318023906611515  -53.63155218652595  25.672860560266805  25.98555526734743  -13.86326585737458  21.460041212189523  0.000000
0.837  0.000000  0.000000  0.000000  -31.20246972519909  0.1107226509993727  70.40085129722274  37.08800603911244  -44.02799931792094  -52.92255536389268  25.146550403264378  27.87906953259735  -14.01749009883139  21.371402769729478  0.000000
0.868  0.000000  0.000000  0.000000  -31.104464115050604  0.28331851160487526  70.40948223677823  37.7607356594204  -43.73452683593462  -52.21212484936904  24.6656867395317  29.744126189265145  -14.189167358765467  21.264877265277853  0.000000
0.899  0.000000  0.000000  0.000000  -31.01290311603092  0.45380631525700244  70.46287115656688  38.44746378098029  -43.44085649203907  -51.50398148190815  24.240181312644612  31.55411772290565  -14.390713402624463  21.133689283062658  0.000000
0.9299999999999999  0.000000  0.000000  0.000000  -30.929505060798714  0.6211708928283413  70.56278850666403  39.139572331452875  -43.14868163944722  -50.807105374157196  23.870633360469636  33.29197764590369  -14.628373106219097  20.973763204608584  0.000000
0.961  0.000000  0.000000  0.000000  -30.85424506863946  0.7849463588636416  70.70832559305018  39.82544605026453  -42.856633544868636  -50.13380768063452  23.55409077827813  34.948540854280544  -14.904514196308822  20.784123502849916  0.000000
0.992  0.000000  0.000000  0.000000  -30.788852363458208  0.9468315395487779  70.89769439594937  40.49322281452864  -42.56058890512305  -49.49697695370387  23.291651873215322  36.51982306458019  -15.224831939536529  20.566258323619316  0.000000
1.023  0.000000  0.000000  0.000000  -30.73918454222772  1.1115211332443375  71.1299860806875  41.132263224226236  -42.25323000904305  -48.906917332746545  23.092282041108763  38.00392365868481  -15.601070396783749  20.323676145620176  0.000000
1.054  0.000000  0.000000  0.000000  -30.71328817454068  1.286021848355309  71.40545428407306  41.735206433657766  -41.92844238494192  -48.368341901111755  22.965934365275665  39.40221147106723  -16.046640545049218  20.061060987468455  0.000000
1.085  0.000000  0.000000  0.000000  -30.717782413829276  1.4770707488788963  71.7268666558129  42.29897002751095  -41.58535712838033  -47.878025598806616  22.910675992299577  40.72032717043377  -16.561625302113693  19.78446348144868  0.000000
1.116  0.000000  0.000000  0.000000  -30.754902152943345  1.6883435513710587  72.10035707825654  42.826866666200566  -41.232723073945195  -47.425150184625096  22.90241579227276  41.96941156414405  -17.1197910327358  19.502642518345525  0.000000
1.147  0.000000  0.000000  0.000000  -30.8233835819502  1.9191152105463491  72.53497923190882  43.32689908117777  -40.886661465010874  -46.99460867893948  22.899043154293533  43.163631387056505  -17.670167412259627  19.227690777924703  0.000000
1.178  0.000000  0.000000  0.000000  -30.922075873394522  2.1661877962335123  73.03860845669313  43.80747494452997  -40.564686117510625  -46.57223773065942  22.85790978738873  44.316681257785255  -18.15784858100427  18.973144131483643  0.000000
1.209  0.000000  0.000000  0.000000  -31.053960360470843  2.4275520420558627  73.61274715634218  44.27147218861985  -40.27692799719121  -46.14929693043897  22.756583414502224  45.43752277094681  -18.547174403440476  18.750549193751816  0.000000
1.24  0.000000  0.000000  0.000000  -31.227080468837485  2.704947362940757  74.24866862113485  44.714060658683394  -40.02149371726191  -45.72309553342408  22.60132349731704  46.52860629712815  -18.83367023669861  18.566545377125294  0.000000
1.271  0.000000  0.000000  0.000000  -31.45089365528835  3.0026493798449447  74.92913217217423  45.126167164371026  -39.78593333928463  -45.294965511553706  22.41815724734365  47.58651209623031  -19.03585091651299  18.422021327508414  0.000000
1.302  0.000000  0.000000  0.000000  -31.728403360293438  3.3222253515930493  75.63345193927071  45.500896170996995  -39.55311358126651  -44.86743417400034  22.232849484125516  48.60562739792045  -19.17861054228285  18.312387480411154  0.000000
1.333  0.000000  0.000000  0.000000  -32.05048066411983  3.6602930301903025  76.34193414473872  45.83697624996297  -39.307470799250915  -44.44213205007331  22.055571209723865  49.58182956257806  -19.281681530873904  18.22926123267358  0.000000
